<?xml version="1.0" standalone="no"?>
<!DOCTYPE svg PUBLIC "-//W3C//DTD SVG 20010904//EN"
 "http://www.w3.org/TR/2001/REC-SVG-20010904/DTD/svg10.dtd">
<svg version="1.0" xmlns="http://www.w3.org/2000/svg"
 width="512.000000pt" height="512.000000pt" viewBox="0 0 512.000000 512.000000"
 preserveAspectRatio="xMidYMid meet">
<metadata>
Created by potrace 1.14, written by Peter Selinger 2001-2017
</metadata>
<g transform="translate(0.000000,512.000000) scale(0.100000,-0.100000)"
fill="#000000" stroke="none">
<path d="M630 4844 c-77 -27 -141 -84 -181 -163 -23 -45 -24 -54 -29 -366 l-5
-319 -82 -1 c-70 0 -85 -3 -107 -22 l-26 -23 0 -402 c1 -425 0 -422 47 -447
24 -12 534 -15 530 -2 0 3 5 17 12 31 11 19 14 102 13 400 0 455 2 413 -20
440 -16 20 -29 23 -105 26 -48 2 -91 5 -95 8 -4 2 -7 141 -7 309 1 333 1 335
62 374 24 16 66 17 470 18 245 0 447 -3 450 -7 2 -5 12 -4 21 0 9 5 690 8
1512 7 1187 0 1501 -3 1526 -13 16 -7 39 -27 50 -45 18 -30 19 -55 20 -444 1
-272 -3 -410 -9 -406 -6 4 -7 1 -1 -8 14 -21 14 -1200 0 -1192 -8 5 -7 2 0 -8
16 -20 15 -801 0 -792 -8 5 -7 2 0 -8 16 -20 16 -401 0 -392 -8 5 -8 3 0 -8 8
-10 11 -105 10 -314 -1 -405 14 -385 -289 -387 -106 -1 -198 1 -205 6 -6 4
-12 4 -12 -1 0 -4 -790 -7 -1755 -6 -1701 1 -1756 2 -1788 20 -55 32 -61 56
-62 273 -1 131 -5 202 -13 217 -15 27 -55 39 -91 27 -47 -17 -52 -41 -49 -264
3 -193 4 -208 26 -250 46 -87 130 -154 213 -170 28 -6 53 -10 54 -10 2 0 29
-45 60 -100 32 -55 67 -107 78 -115 18 -12 73 -15 318 -15 347 0 313 -12 394
137 42 78 54 93 75 94 31 1 1997 1 2026 0 17 -1 35 -25 79 -101 32 -55 67
-107 78 -115 33 -23 587 -22 625 1 22 13 86 110 126 192 5 11 38 31 73 47 74
32 134 89 169 162 l25 53 0 1919 0 1918 -21 56 c-25 67 -91 137 -158 169 l-47
23 -1970 2 c-1759 2 -1975 0 -2015 -13z m13 -1003 c4 -1 7 -134 7 -296 0 -162
-3 -295 -7 -296 -32 -4 -276 -3 -282 1 -4 3 -7 136 -7 297 0 250 2 293 15 295
13 3 253 2 274 -1z m781 -3310 c12 -1 12 -5 0 -31 -9 -16 -21 -33 -27 -37 -14
-8 -444 -11 -455 -3 -9 6 -42 57 -42 64 0 2 8 6 17 8 14 2 460 2 507 -1z
m2968 0 c16 -1 15 -4 -3 -36 -12 -19 -26 -36 -32 -36 -50 -6 -174 -3 -184 3
-6 5 -14 5 -16 1 -4 -7 -193 -10 -242 -4 -12 1 -47 60 -41 69 3 5 425 7 518 3z"/>
<path d="M2395 4005 c-179 -36 -337 -101 -488 -204 -128 -86 -283 -245 -365
-376 -49 -78 -138 -270 -148 -320 -1 -5 -9 -37 -17 -70 -25 -96 -28 -122 -32
-260 -4 -148 5 -230 40 -365 73 -282 278 -569 526 -735 122 -82 298 -163 391
-180 21 -4 35 -11 32 -16 -3 -5 1 -7 8 -4 7 2 47 -2 88 -9 100 -18 295 -18
400 0 484 81 891 438 1034 904 43 139 55 230 51 395 -1 83 -5 161 -9 175 -3
14 -9 39 -12 55 -7 44 -43 164 -62 210 -41 100 -136 268 -177 311 -5 7 -37 43
-70 80 -188 217 -467 370 -760 419 -122 20 -301 16 -430 -10z m386 -140 c161
-21 324 -78 452 -159 105 -66 100 -62 206 -166 48 -47 108 -119 135 -160 69
-104 135 -250 150 -330 3 -14 10 -41 15 -60 36 -117 34 -373 -5 -523 -55 -218
-146 -380 -299 -532 -162 -162 -347 -262 -577 -311 -120 -26 -372 -23 -466 5
-37 11 -37 11 -58 11 -8 0 -13 3 -11 8 3 4 -9 7 -26 8 -47 2 -204 73 -299 137
-154 103 -281 240 -366 397 -41 77 -107 257 -116 320 -17 114 -19 144 -19 235
1 486 299 910 749 1063 113 38 164 50 250 58 38 4 70 7 72 9 5 4 161 -3 213
-10z"/>
<path d="M2204 3186 c-216 -53 -396 -261 -469 -542 -29 -113 -14 -145 73 -146
78 0 169 41 217 99 22 26 84 92 138 146 95 95 172 147 221 147 11 0 71 -30
134 -66 132 -77 187 -105 257 -129 107 -37 237 -28 254 18 11 30 -19 114 -56
155 -7 7 -13 17 -13 21 0 17 -138 148 -194 185 -77 51 -173 91 -261 109 -89
18 -235 20 -301 3z"/>
<path d="M3396 2929 c-66 -16 -132 -59 -167 -107 -53 -74 -201 -215 -257 -245
-29 -16 -65 -29 -81 -29 -17 -1 -64 20 -122 54 -193 113 -299 157 -385 160
-86 2 -104 -1 -130 -27 l-24 -24 20 -53 c61 -161 240 -318 434 -383 149 -50
324 -53 438 -8 189 74 339 260 407 504 24 88 26 117 6 143 -17 22 -82 29 -139
15z"/>
<path d="M470 2971 c-47 -13 -50 -33 -50 -373 l0 -318 -22 -1 c-13 -1 -45 -1
-73 -1 -65 2 -101 -13 -114 -47 -8 -19 -11 -148 -9 -425 l3 -398 24 -19 c21
-18 42 -19 261 -19 131 0 250 4 264 10 33 12 47 41 48 98 1 26 6 53 12 61 8
11 8 13 0 8 -8 -5 -11 81 -10 321 1 180 -2 339 -7 354 -14 43 -34 53 -111 55
-39 1 -80 2 -91 2 -20 1 -20 8 -20 327 l0 326 -28 24 c-29 25 -36 26 -77 15z
m163 -850 c16 -1 17 -22 17 -296 0 -274 -1 -295 -17 -296 -45 -3 -259 -4 -269
-1 -15 4 -13 580 3 590 9 6 180 7 266 3z"/>
</g>
</svg>
