<?xml version="1.0" encoding="utf-8"?>
<!-- Generator: Adobe Illustrator 21.1.0, SVG Export Plug-In . SVG Version: 6.00 Build 0)  -->
<svg version="1.1" id="Layer_1" xmlns="http://www.w3.org/2000/svg" xmlns:xlink="http://www.w3.org/1999/xlink" x="0px" y="0px"
	 viewBox="0 0 1365.3 1365.3" style="enable-background:new 0 0 1365.3 1365.3;" xml:space="preserve">
<path d="M391.3,24.8c-39.7,3.5-74.8,11.3-109.2,24.8C168.3,94.3,83.3,194.1,57.2,314c-1.6,7.3-3.1,13.5-3.2,13.7
	c-0.1,0.1-3.6,1.2-7.9,2.3c-21.1,5.5-36.7,19.9-43.5,40.3C0,377.9,0,381.1,0.3,472.1L0.7,566l3.5,7.3c7.5,15.9,21.7,28.9,37.3,34
	l6.5,2.3v146.1l-6.5,2.3c-9.1,2.9-21.2,11.1-27.2,18.1c-2.8,3.2-7.1,9.7-9.3,14.5l-4.3,8.7v193.3l4.3,8.9
	c7.7,16.4,23.2,29.5,40.1,33.9l9.1,2.3l3.1,14.8c4,19.3,15.3,53.6,24.1,72.5c49.1,106.4,142.5,182.5,254.8,207.5
	c39.5,8.7,10.7,8,359.9,8.5c224,0.3,321.7,0,333.9-1.1c48.8-4.1,91.9-16.5,135.9-39.1c94.9-48.4,163.9-135.2,189.5-238.3
	c10.1-40.7,9.2-7.6,9.7-372.7c0.4-324.8,0.4-328.1-2.3-347.3c-11.3-79.6-45.3-149.6-100-205.9c-21.2-21.9-37.2-35.2-60.7-50.8
	c-47.5-31.6-90.8-48.3-152-58.4l-17.3-2.8l-318-0.3C539.7,24.5,394.3,24.7,391.3,24.8L391.3,24.8z M1008.5,156.7
	c109.6,14.4,199.1,97.5,221.5,205.6c1.9,8.5,3.9,22.8,4.7,31.6c1.1,11.3,1.3,101.2,1.1,300.1l-0.5,284l-2.9,14.7
	c-11.3,57.7-34.4,102.4-72.3,140.5c-22.3,22.4-43.3,37.5-72.4,51.5c-26.9,13.1-53.2,20.8-83.6,24.5c-15.6,2-577.6,2-593.3,0.1
	c-48-6-97.1-26.4-133.2-55.6c-10.4-8.3-30.9-28.7-39.5-39.1c-32.5-39.7-52.7-89.6-58-143.9c-1.9-18.8-1.9-557.5,0-576.3
	c5.3-54.3,25.5-104.1,58-143.9c8.5-10.4,29.1-30.8,39.5-39.1c35.5-28.7,84.9-49.5,131.3-55.5c5.1-0.5,138.7-1.2,296.8-1.3
	C955.2,154.7,995.2,154.9,1008.5,156.7L1008.5,156.7z"/>
<g id="gxAtem.tif">
	
		<image style="overflow:visible;" width="1359" height="719" id="Layer_1_1_" xlink:href="93699B1B0DB15FA8.png"  transform="matrix(0.7493 0 0 0.7493 193 415.2261)">
	</image>
</g>
</svg>
